<svg width="143" height="26" viewBox="0 0 143 26" fill="none" xmlns="http://www.w3.org/2000/svg">
    <path fill-rule="evenodd" clip-rule="evenodd"
        d="M9.14431 22.0615L9.83705 21.1671H14.9633L17.6353 24.5821L17.1603 25.7408H10.5496L10.7079 24.5821L9.14431 22.0615Z"
        fill="#169FCC" />
    <path fill-rule="evenodd" clip-rule="evenodd"
        d="M10.7114 10.4172L13.1866 6.1395H16.071L28.9997 21.1618L27.9973 25.7408H22.4535L22.8013 24.4555L10.7114 10.4172Z"
        fill="#14B59A" />
    <path fill-rule="evenodd" clip-rule="evenodd"
        d="M13.7165 5.32673L14.9017 3.1342L18.4573 0.259094L24.5498 5.03715L23.7596 5.84384L24.8201 7.31242V8.88442L21.7843 11.3665L16.6899 5.32673H13.7165Z"
        fill="#1BC263" />
    <path fill-rule="evenodd" clip-rule="evenodd"
        d="M4.30113 14.8803H5.9115L10.1107 11.3665L15.6757 17.835L14.1061 20.1908H8.96918L5.42227 24.7027L4.6069 25.7409H0V20.2108L4.30113 14.8803Z"
        fill="#16BDCC" />
    <path fill-rule="evenodd" clip-rule="evenodd"
        d="M66.8398 5.83386C68.3836 5.83386 69.0993 6.04033 69.6573 6.53163C70.552 7.28763 71.2011 8.59845 71.2011 13C71.2011 17.3814 70.552 18.6912 69.6573 19.4694C69.0993 19.9607 68.3836 20.1661 66.8398 20.1661H61.9872C60.4445 20.1661 59.7298 19.9607 59.1708 19.4694C58.276 18.6912 57.628 17.3814 57.628 13C57.628 8.59845 58.276 7.28763 59.1708 6.53163C59.7298 6.04033 60.4445 5.83386 61.9872 5.83386H66.8398ZM61.8538 17.32C62.0105 17.4428 62.2117 17.5042 62.9275 17.5042H65.9006C66.6164 17.5243 66.8176 17.4428 66.9743 17.32C67.1755 17.1357 67.4666 16.6243 67.4666 13C67.4666 9.35657 67.1755 8.8441 66.9743 8.67998C66.8176 8.53704 66.6164 8.47457 65.9006 8.47457H62.9275C62.2117 8.47457 62.0105 8.53704 61.8538 8.67998C61.6526 8.8441 61.3625 9.35657 61.3625 13C61.3625 16.6434 61.6526 17.1357 61.8538 17.32Z"
        fill="white" />
    <path
        d="M52.3459 5.83429L47.6055 11.5466H46.6441V5.83429H42.9997V20.1655H46.6441V14.0846H47.65L52.3459 20.1655H56.6394L50.5787 12.5695L56.3927 5.83429H52.3459Z"
        fill="white" />
    <path
        d="M84.2866 14.8628V12.1871L87.7754 18.2298V20.1654H84.8234C83.9965 20.1654 83.6163 19.961 83.2129 19.3067L77.8246 10.4612H77.6012V20.1654H74.1134V5.83418H77.5345C78.3836 5.83418 78.7415 6.01842 79.1439 6.695L84.0632 14.8628H84.2866Z"
        fill="white" />
    <path
        d="M87.4248 13.8126V11.137H87.6482L92.5675 19.3047C92.9699 19.9813 93.3278 20.1656 94.1769 20.1656H97.598V5.83439H94.1102V15.5385H93.8868L88.4985 6.6931C88.0951 6.03874 87.7149 5.83439 86.888 5.83439H83.936V7.76992L87.4248 13.8126Z"
        fill="white" />
    <path
        d="M100.693 20.1656H112.432V17.5249H104.338V14.0646H110.644V11.5467H104.338V8.4751H112.432V5.83439H100.693V20.1656Z"
        fill="white" />
    <path
        d="M126.525 19.4697C125.966 19.961 125.272 20.1654 123.707 20.1654H118.922C117.379 20.1654 116.664 19.961 116.105 19.4697C115.21 18.6915 114.562 17.3807 114.562 13.0003C114.562 8.59771 115.21 7.28794 116.105 6.53089C116.664 6.03959 117.379 5.83418 118.922 5.83418H123.707C125.272 5.83418 125.966 6.03959 126.525 6.53089C127.352 7.24771 127.733 8.33194 127.777 11.015H124.29C124.222 9.233 124.021 8.84442 123.842 8.6803C123.685 8.53736 123.484 8.47489 122.768 8.47489H119.862C119.146 8.47489 118.945 8.53736 118.788 8.6803C118.587 8.84442 118.297 9.35583 118.297 13.0003C118.297 16.6437 118.587 17.1361 118.788 17.3203C118.945 17.4431 119.146 17.5045 119.862 17.5045H122.768C123.484 17.5247 123.685 17.4431 123.842 17.3203C124.021 17.1551 124.222 16.8078 124.29 14.8215H127.8C127.71 17.7089 127.352 18.7529 126.525 19.4697Z"
        fill="white" />
    <path d="M137.642 20.1661V8.4968H142.451V5.83386H129.235V8.4968H133.998V20.1661H137.642Z"
        fill="white" />
</svg>
    